<svg width="137" height="120" viewBox="0 0 137 120" fill="none" xmlns="http://www.w3.org/2000/svg">
<rect width="137" height="120" rx="26" fill="#CCE0F0"/>
<path d="M71.9584 73.3336H51.2084C50.2912 73.3336 49.4116 73.698 48.763 74.3465C48.1145 74.9951 47.7501 75.8747 47.7501 76.7919C47.7501 77.7092 48.1145 78.5888 48.763 79.2374C49.4116 79.8859 50.2912 80.2503 51.2084 80.2503H71.9584C72.8756 80.2503 73.7553 79.8859 74.4039 79.2374C75.0524 78.5888 75.4168 77.7092 75.4168 76.7919C75.4168 75.8747 75.0524 74.9951 74.4039 74.3465C73.7553 73.698 72.8756 73.3336 71.9584 73.3336ZM58.1251 52.5836H65.0418C65.959 52.5836 66.8386 52.2192 67.4872 51.5707C68.1357 50.9221 68.5001 50.0425 68.5001 49.1253C68.5001 48.2081 68.1357 47.3284 67.4872 46.6799C66.8386 46.0313 65.959 45.6669 65.0418 45.6669H58.1251C57.2079 45.6669 56.3283 46.0313 55.6797 46.6799C55.0311 47.3284 54.6668 48.2081 54.6668 49.1253C54.6668 50.0425 55.0311 50.9221 55.6797 51.5707C56.3283 52.2192 57.2079 52.5836 58.1251 52.5836ZM99.6251 59.5003H89.2501V28.3753C89.2525 27.7659 89.0939 27.1667 88.7902 26.6383C88.4866 26.11 88.0487 25.6712 87.5209 25.3665C86.9952 25.063 86.3988 24.9032 85.7918 24.9032C85.1847 24.9032 84.5883 25.063 84.0626 25.3665L73.6876 31.3149L63.3126 25.3665C62.7869 25.063 62.1905 24.9032 61.5834 24.9032C60.9764 24.9032 60.38 25.063 59.8543 25.3665L49.4793 31.3149L39.1043 25.3665C38.5785 25.063 37.9822 24.9032 37.3751 24.9032C36.768 24.9032 36.1717 25.063 35.6459 25.3665C35.1182 25.6712 34.6803 26.11 34.3767 26.6383C34.073 27.1667 33.9144 27.7659 33.9168 28.3753V83.7086C33.9168 86.4602 35.0099 89.0992 36.9555 91.0448C38.9012 92.9905 41.5402 94.0836 44.2918 94.0836H92.7084C95.4601 94.0836 98.099 92.9905 100.045 91.0448C101.99 89.0992 103.083 86.4602 103.083 83.7086V62.9586C103.083 62.0414 102.719 61.1618 102.071 60.5132C101.422 59.8646 100.542 59.5003 99.6251 59.5003ZM44.2918 87.1669C43.3746 87.1669 42.4949 86.8026 41.8464 86.154C41.1978 85.5055 40.8334 84.6258 40.8334 83.7086V34.3582L47.7501 38.3007C48.2839 38.5795 48.8771 38.7251 49.4793 38.7251C50.0814 38.7251 50.6747 38.5795 51.2084 38.3007L61.5834 32.3524L71.9584 38.3007C72.4922 38.5795 73.0854 38.7251 73.6876 38.7251C74.2898 38.7251 74.883 38.5795 75.4168 38.3007L82.3334 34.3582V83.7086C82.3428 84.8884 82.5533 86.0579 82.9559 87.1669H44.2918ZM96.1668 83.7086C96.1668 84.6258 95.8024 85.5055 95.1539 86.154C94.5053 86.8026 93.6257 87.1669 92.7084 87.1669C91.7912 87.1669 90.9116 86.8026 90.263 86.154C89.6145 85.5055 89.2501 84.6258 89.2501 83.7086V66.4169H96.1668V83.7086ZM71.9584 59.5003H51.2084C50.2912 59.5003 49.4116 59.8646 48.763 60.5132C48.1145 61.1618 47.7501 62.0414 47.7501 62.9586C47.7501 63.8758 48.1145 64.7555 48.763 65.404C49.4116 66.0526 50.2912 66.4169 51.2084 66.4169H71.9584C72.8756 66.4169 73.7553 66.0526 74.4039 65.404C75.0524 64.7555 75.4168 63.8758 75.4168 62.9586C75.4168 62.0414 75.0524 61.1618 74.4039 60.5132C73.7553 59.8646 72.8756 59.5003 71.9584 59.5003Z" fill="#087189"/>
</svg>
