<svg width="136" height="136" viewBox="0 0 136 136" fill="none" xmlns="http://www.w3.org/2000/svg">
<circle cx="1.84407" cy="1.84407" r="1.84407" fill="black"/>
<circle cx="20.7458" cy="1.84407" r="1.84407" fill="black"/>
<circle cx="39.6475" cy="1.84407" r="1.84407" fill="black"/>
<circle cx="58.5491" cy="1.84407" r="1.84407" fill="black"/>
<circle cx="77.4509" cy="1.84407" r="1.84407" fill="black"/>
<circle cx="96.3526" cy="1.84407" r="1.84407" fill="black"/>
<circle cx="115.254" cy="1.84407" r="1.84407" fill="black"/>
<circle cx="134.156" cy="1.84407" r="1.84407" fill="black"/>
<circle cx="1.84407" cy="20.7458" r="1.84407" fill="black"/>
<circle cx="20.7458" cy="20.7458" r="1.84407" fill="black"/>
<circle cx="39.6475" cy="20.7458" r="1.84407" fill="black"/>
<circle cx="58.5491" cy="20.7458" r="1.84407" fill="black"/>
<circle cx="77.4509" cy="20.7458" r="1.84407" fill="black"/>
<circle cx="96.3526" cy="20.7458" r="1.84407" fill="black"/>
<circle cx="115.254" cy="20.7458" r="1.84407" fill="black"/>
<circle cx="134.156" cy="20.7458" r="1.84407" fill="black"/>
<circle cx="1.84407" cy="39.6474" r="1.84407" fill="black"/>
<circle cx="20.7458" cy="39.6474" r="1.84407" fill="black"/>
<circle cx="39.6475" cy="39.6474" r="1.84407" fill="black"/>
<circle cx="58.5491" cy="39.6474" r="1.84407" fill="black"/>
<circle cx="77.4509" cy="39.6474" r="1.84407" fill="black"/>
<circle cx="96.3526" cy="39.6474" r="1.84407" fill="black"/>
<circle cx="115.254" cy="39.6474" r="1.84407" fill="black"/>
<circle cx="134.156" cy="39.6474" r="1.84407" fill="black"/>
<circle cx="1.84407" cy="58.5491" r="1.84407" fill="black"/>
<circle cx="20.7458" cy="58.5491" r="1.84407" fill="black"/>
<circle cx="39.6475" cy="58.5491" r="1.84407" fill="black"/>
<circle cx="58.5491" cy="58.5491" r="1.84407" fill="black"/>
<circle cx="77.4509" cy="58.5491" r="1.84407" fill="black"/>
<circle cx="96.3526" cy="58.5491" r="1.84407" fill="black"/>
<circle cx="115.254" cy="58.5491" r="1.84407" fill="black"/>
<circle cx="134.156" cy="58.5491" r="1.84407" fill="black"/>
<circle cx="1.84407" cy="77.4509" r="1.84407" fill="black"/>
<circle cx="20.7458" cy="77.4509" r="1.84407" fill="black"/>
<circle cx="39.6475" cy="77.4509" r="1.84407" fill="black"/>
<circle cx="58.5491" cy="77.4509" r="1.84407" fill="black"/>
<circle cx="77.4509" cy="77.4509" r="1.84407" fill="black"/>
<circle cx="96.3526" cy="77.4509" r="1.84407" fill="black"/>
<circle cx="115.254" cy="77.4509" r="1.84407" fill="black"/>
<circle cx="134.156" cy="77.4509" r="1.84407" fill="black"/>
<circle cx="1.84407" cy="96.3525" r="1.84407" fill="black"/>
<circle cx="20.7458" cy="96.3525" r="1.84407" fill="black"/>
<circle cx="39.6475" cy="96.3525" r="1.84407" fill="black"/>
<circle cx="58.5491" cy="96.3525" r="1.84407" fill="black"/>
<circle cx="77.4509" cy="96.3525" r="1.84407" fill="black"/>
<circle cx="96.3526" cy="96.3525" r="1.84407" fill="black"/>
<circle cx="115.254" cy="96.3525" r="1.84407" fill="black"/>
<circle cx="134.156" cy="96.3525" r="1.84407" fill="black"/>
<circle cx="1.84407" cy="115.254" r="1.84407" fill="black"/>
<circle cx="20.7458" cy="115.254" r="1.84407" fill="black"/>
<circle cx="39.6475" cy="115.254" r="1.84407" fill="black"/>
<circle cx="58.5491" cy="115.254" r="1.84407" fill="black"/>
<circle cx="77.4509" cy="115.254" r="1.84407" fill="black"/>
<circle cx="96.3526" cy="115.254" r="1.84407" fill="black"/>
<circle cx="115.254" cy="115.254" r="1.84407" fill="black"/>
<circle cx="134.156" cy="115.254" r="1.84407" fill="black"/>
<circle cx="1.84407" cy="134.156" r="1.84407" fill="black"/>
<circle cx="20.7458" cy="134.156" r="1.84407" fill="black"/>
<circle cx="39.6475" cy="134.156" r="1.84407" fill="black"/>
<circle cx="58.5491" cy="134.156" r="1.84407" fill="black"/>
<circle cx="77.4509" cy="134.156" r="1.84407" fill="black"/>
<circle cx="96.3526" cy="134.156" r="1.84407" fill="black"/>
<circle cx="115.254" cy="134.156" r="1.84407" fill="black"/>
<circle cx="134.156" cy="134.156" r="1.84407" fill="black"/>
</svg>
