<svg width="119" height="25" viewBox="0 0 119 25" fill="none" xmlns="http://www.w3.org/2000/svg">
<path d="M9.32812 4.32812C8.99479 4.30729 8.60938 4.29167 8.17188 4.28125C7.74479 4.27083 7.28646 4.26562 6.79688 4.26562C6.72396 5.23438 6.66146 6.23958 6.60938 7.28125C6.56771 8.3125 6.53125 9.36458 6.5 10.4375C6.46875 11.5 6.44792 12.5729 6.4375 13.6562C6.42708 14.7292 6.42188 15.7917 6.42188 16.8438C6.42188 18.0417 6.42708 19.2031 6.4375 20.3281C6.45833 21.4427 6.49479 22.5208 6.54688 23.5625H3.21875C3.3125 21.7917 3.38542 19.9062 3.4375 17.9062C3.48958 15.9062 3.51562 13.8906 3.51562 11.8594C3.51562 10.5365 3.5 9.24479 3.46875 7.98438C3.4375 6.72396 3.40625 5.49479 3.375 4.29688C2.875 4.29688 2.40104 4.30208 1.95312 4.3125C1.50521 4.32292 1.10417 4.33854 0.75 4.35938L0.78125 1.09375C1.15625 1.125 1.57812 1.15104 2.04688 1.17188C2.51562 1.18229 3.00521 1.19271 3.51562 1.20312C4.03646 1.21354 4.56771 1.22396 5.10938 1.23438C5.65104 1.23438 6.18229 1.23438 6.70312 1.23438C7.22396 1.23438 7.71354 1.23438 8.17188 1.23438C8.64062 1.23438 9.05729 1.22396 9.42188 1.20312L9.32812 4.32812ZM21.0156 12.5625C21.0156 14.6562 20.8698 16.4323 20.5781 17.8906C20.2969 19.349 19.9115 20.5365 19.4219 21.4531C18.9323 22.3594 18.3542 23.0208 17.6875 23.4375C17.0208 23.8438 16.3073 24.0469 15.5469 24.0469C14.7865 24.0469 14.0729 23.8542 13.4062 23.4688C12.7396 23.0729 12.1562 22.4271 11.6562 21.5312C11.1562 20.6354 10.7604 19.4531 10.4688 17.9844C10.1875 16.5156 10.0469 14.7083 10.0469 12.5625C10.0469 10.4062 10.1875 8.57812 10.4688 7.07812C10.7604 5.56771 11.1562 4.34375 11.6562 3.40625C12.1562 2.45833 12.7396 1.77604 13.4062 1.35938C14.0729 0.932292 14.7865 0.71875 15.5469 0.71875C16.3073 0.71875 17.0208 0.927083 17.6875 1.34375C18.3542 1.75 18.9323 2.42188 19.4219 3.35938C19.9115 4.29688 20.2969 5.52083 20.5781 7.03125C20.8698 8.53125 21.0156 10.375 21.0156 12.5625ZM17.5312 12.5625C17.5312 10.9271 17.4792 9.54688 17.375 8.42188C17.2708 7.29688 17.125 6.38542 16.9375 5.6875C16.7604 4.97917 16.5521 4.46875 16.3125 4.15625C16.0729 3.84375 15.8177 3.6875 15.5469 3.6875C15.2656 3.6875 15 3.84896 14.75 4.17188C14.5104 4.48438 14.2969 4.99479 14.1094 5.70312C13.9323 6.40104 13.7917 7.31771 13.6875 8.45312C13.5833 9.57812 13.5312 10.9479 13.5312 12.5625C13.5312 14.1667 13.5833 15.5156 13.6875 16.6094C13.7917 17.6927 13.9323 18.5677 14.1094 19.2344C14.2969 19.8906 14.5104 20.3594 14.75 20.6406C15 20.9219 15.2656 21.0625 15.5469 21.0625C15.8177 21.0625 16.0729 20.9167 16.3125 20.625C16.5521 20.3229 16.7604 19.8385 16.9375 19.1719C17.125 18.4948 17.2708 17.6146 17.375 16.5312C17.4792 15.4479 17.5312 14.125 17.5312 12.5625ZM30.6094 17.9688C30.6094 18.7917 30.5208 19.5156 30.3438 20.1406C30.1771 20.7552 29.9531 21.2865 29.6719 21.7344C29.401 22.1719 29.0938 22.5365 28.75 22.8281C28.4062 23.1094 28.0521 23.3333 27.6875 23.5C27.3333 23.6667 26.9896 23.7812 26.6562 23.8438C26.3333 23.9167 26.0521 23.9531 25.8125 23.9531C25.6875 23.9531 25.5156 23.9427 25.2969 23.9219C25.0781 23.9115 24.8281 23.8802 24.5469 23.8281C24.2656 23.776 23.9531 23.6979 23.6094 23.5938C23.276 23.5 22.9219 23.3646 22.5469 23.1875L22.7188 19.25C23.3333 19.7708 23.8802 20.1198 24.3594 20.2969C24.849 20.474 25.2604 20.5625 25.5938 20.5625C26.2396 20.5625 26.724 20.3281 27.0469 19.8594C27.3802 19.3906 27.5469 18.7812 27.5469 18.0312C27.5469 17.5312 27.4219 16.974 27.1719 16.3594C26.9323 15.7344 26.5 15.0625 25.875 14.3438C25.4479 13.8438 25.0052 13.3229 24.5469 12.7812C24.0885 12.2396 23.6719 11.6615 23.2969 11.0469C22.9219 10.4323 22.6146 9.77083 22.375 9.0625C22.1354 8.35417 22.0156 7.58854 22.0156 6.76562C22.0156 5.72396 22.1562 4.82292 22.4375 4.0625C22.7292 3.30208 23.1146 2.67188 23.5938 2.17188C24.0729 1.67188 24.6198 1.30208 25.2344 1.0625C25.8594 0.8125 26.5104 0.6875 27.1875 0.6875C27.7812 0.6875 28.3854 0.770833 29 0.9375C29.625 1.09375 30.25 1.33854 30.875 1.67188L30.5781 5.60938C30.3073 5.26562 30.0208 4.99479 29.7188 4.79688C29.4271 4.58854 29.1406 4.43229 28.8594 4.32812C28.5885 4.22396 28.3333 4.15625 28.0938 4.125C27.8646 4.09375 27.6719 4.07812 27.5156 4.07812C27.2135 4.07812 26.9323 4.15625 26.6719 4.3125C26.4219 4.45833 26.2031 4.66146 26.0156 4.92188C25.8385 5.17188 25.6979 5.47396 25.5938 5.82812C25.4896 6.17188 25.4375 6.53646 25.4375 6.92188C25.4375 7.51562 25.5625 8.05208 25.8125 8.53125C26.0729 9.01042 26.3958 9.48438 26.7812 9.95312C27.1667 10.4219 27.5781 10.9062 28.0156 11.4062C28.4635 11.8958 28.8802 12.4531 29.2656 13.0781C29.651 13.6927 29.9688 14.401 30.2188 15.2031C30.4792 15.9948 30.6094 16.9167 30.6094 17.9688ZM36.4688 1.0625C36.3646 3.125 36.276 5.17188 36.2031 7.20312C36.1302 9.22396 36.0781 11.2552 36.0469 13.2969C36.3073 13.3177 36.5677 13.3281 36.8281 13.3281C37.099 13.3281 37.3646 13.3281 37.625 13.3281C37.9583 13.3281 38.2969 13.3229 38.6406 13.3125C38.9948 13.3021 39.349 13.2865 39.7031 13.2656C39.724 12.8073 39.7344 12.3594 39.7344 11.9219C39.7344 11.474 39.7344 11.0156 39.7344 10.5469C39.7344 8.96354 39.7188 7.38542 39.6875 5.8125C39.6562 4.23958 39.6042 2.65625 39.5312 1.0625H43.375C43.1875 3.57292 43.0417 6.06771 42.9375 8.54688C42.8438 11.0156 42.7969 13.5052 42.7969 16.0156C42.7969 17.2448 42.8125 18.4688 42.8438 19.6875C42.875 20.9062 42.9167 22.1354 42.9688 23.375H39.4062C39.4583 22.1354 39.5052 20.901 39.5469 19.6719C39.5885 18.4427 39.6302 17.2135 39.6719 15.9844C39.0781 15.9531 38.4844 15.9271 37.8906 15.9062C37.3073 15.875 36.724 15.8594 36.1406 15.8594H36.0156V19.0781C36.0156 19.8073 36.0156 20.526 36.0156 21.2344C36.0156 21.9427 36.026 22.6562 36.0469 23.375H32.4688C32.5208 21.875 32.5521 20.3958 32.5625 18.9375C32.5833 17.4688 32.5938 15.9948 32.5938 14.5156C32.5938 10.0365 32.5 5.55208 32.3125 1.0625H36.4688ZM55.7969 12.5625C55.7969 14.6562 55.651 16.4323 55.3594 17.8906C55.0781 19.349 54.6927 20.5365 54.2031 21.4531C53.7135 22.3594 53.1354 23.0208 52.4688 23.4375C51.8021 23.8438 51.0885 24.0469 50.3281 24.0469C49.5677 24.0469 48.8542 23.8542 48.1875 23.4688C47.5208 23.0729 46.9375 22.4271 46.4375 21.5312C45.9375 20.6354 45.5417 19.4531 45.25 17.9844C44.9688 16.5156 44.8281 14.7083 44.8281 12.5625C44.8281 10.4062 44.9688 8.57812 45.25 7.07812C45.5417 5.56771 45.9375 4.34375 46.4375 3.40625C46.9375 2.45833 47.5208 1.77604 48.1875 1.35938C48.8542 0.932292 49.5677 0.71875 50.3281 0.71875C51.0885 0.71875 51.8021 0.927083 52.4688 1.34375C53.1354 1.75 53.7135 2.42188 54.2031 3.35938C54.6927 4.29688 55.0781 5.52083 55.3594 7.03125C55.651 8.53125 55.7969 10.375 55.7969 12.5625ZM52.3125 12.5625C52.3125 10.9271 52.2604 9.54688 52.1562 8.42188C52.0521 7.29688 51.9062 6.38542 51.7188 5.6875C51.5417 4.97917 51.3333 4.46875 51.0938 4.15625C50.8542 3.84375 50.599 3.6875 50.3281 3.6875C50.0469 3.6875 49.7812 3.84896 49.5312 4.17188C49.2917 4.48438 49.0781 4.99479 48.8906 5.70312C48.7135 6.40104 48.5729 7.31771 48.4688 8.45312C48.3646 9.57812 48.3125 10.9479 48.3125 12.5625C48.3125 14.1667 48.3646 15.5156 48.4688 16.6094C48.5729 17.6927 48.7135 18.5677 48.8906 19.2344C49.0781 19.8906 49.2917 20.3594 49.5312 20.6406C49.7812 20.9219 50.0469 21.0625 50.3281 21.0625C50.599 21.0625 50.8542 20.9167 51.0938 20.625C51.3333 20.3229 51.5417 19.8385 51.7188 19.1719C51.9062 18.4948 52.0521 17.6146 52.1562 16.5312C52.2604 15.4479 52.3125 14.125 52.3125 12.5625ZM72.7344 1.60938L70.5469 24.1094H66.4219C66.3906 23.1927 66.3542 22.3333 66.3125 21.5312C66.2812 20.7188 66.2344 19.9427 66.1719 19.2031C66.1094 18.4635 66.0365 17.7396 65.9531 17.0312C65.8802 16.3229 65.7917 15.599 65.6875 14.8594C65.5938 14.1198 65.4844 13.3542 65.3594 12.5625C65.2344 11.7604 65.099 10.9062 64.9531 10C64.7552 11.1667 64.4792 12.9167 64.125 15.25C63.7708 17.5729 63.3438 20.474 62.8438 23.9531L58.5156 24.1719L56.9531 1.70312L60.8906 1.60938C60.8802 2.25521 60.875 2.95833 60.875 3.71875C60.8646 4.375 60.8594 5.13021 60.8594 5.98438C60.8594 6.82812 60.8594 7.72917 60.8594 8.6875C60.8594 9.44792 60.8594 10.2188 60.8594 11C60.8594 11.7812 60.8594 12.5521 60.8594 13.3125C60.8698 14.0625 60.875 14.7865 60.875 15.4844C60.8854 16.1823 60.901 16.8177 60.9219 17.3906L63.0625 3.78125H66.6719L68.375 16.75C68.3958 15.9792 68.4167 15.1667 68.4375 14.3125C68.4688 13.4479 68.4948 12.5781 68.5156 11.7031C68.5365 10.8281 68.5521 9.96354 68.5625 9.10938C68.5833 8.25521 68.6042 7.4375 68.625 6.65625C68.6667 4.83333 68.7031 3.01562 68.7344 1.20312L72.7344 1.60938ZM84.5781 12.5625C84.5781 14.6562 84.4323 16.4323 84.1406 17.8906C83.8594 19.349 83.474 20.5365 82.9844 21.4531C82.4948 22.3594 81.9167 23.0208 81.25 23.4375C80.5833 23.8438 79.8698 24.0469 79.1094 24.0469C78.349 24.0469 77.6354 23.8542 76.9688 23.4688C76.3021 23.0729 75.7188 22.4271 75.2188 21.5312C74.7188 20.6354 74.3229 19.4531 74.0312 17.9844C73.75 16.5156 73.6094 14.7083 73.6094 12.5625C73.6094 10.4062 73.75 8.57812 74.0312 7.07812C74.3229 5.56771 74.7188 4.34375 75.2188 3.40625C75.7188 2.45833 76.3021 1.77604 76.9688 1.35938C77.6354 0.932292 78.349 0.71875 79.1094 0.71875C79.8698 0.71875 80.5833 0.927083 81.25 1.34375C81.9167 1.75 82.4948 2.42188 82.9844 3.35938C83.474 4.29688 83.8594 5.52083 84.1406 7.03125C84.4323 8.53125 84.5781 10.375 84.5781 12.5625ZM81.0938 12.5625C81.0938 10.9271 81.0417 9.54688 80.9375 8.42188C80.8333 7.29688 80.6875 6.38542 80.5 5.6875C80.3229 4.97917 80.1146 4.46875 79.875 4.15625C79.6354 3.84375 79.3802 3.6875 79.1094 3.6875C78.8281 3.6875 78.5625 3.84896 78.3125 4.17188C78.0729 4.48438 77.8594 4.99479 77.6719 5.70312C77.4948 6.40104 77.3542 7.31771 77.25 8.45312C77.1458 9.57812 77.0938 10.9479 77.0938 12.5625C77.0938 14.1667 77.1458 15.5156 77.25 16.6094C77.3542 17.6927 77.4948 18.5677 77.6719 19.2344C77.8594 19.8906 78.0729 20.3594 78.3125 20.6406C78.5625 20.9219 78.8281 21.0625 79.1094 21.0625C79.3802 21.0625 79.6354 20.9167 79.875 20.625C80.1146 20.3229 80.3229 19.8385 80.5 19.1719C80.6875 18.4948 80.8333 17.6146 80.9375 16.5312C81.0417 15.4479 81.0938 14.125 81.0938 12.5625ZM96.8281 12.5625C96.8281 14.6562 96.6823 16.4323 96.3906 17.8906C96.1094 19.349 95.724 20.5365 95.2344 21.4531C94.7448 22.3594 94.1667 23.0208 93.5 23.4375C92.8333 23.8438 92.1198 24.0469 91.3594 24.0469C90.599 24.0469 89.8854 23.8542 89.2188 23.4688C88.5521 23.0729 87.9688 22.4271 87.4688 21.5312C86.9688 20.6354 86.5729 19.4531 86.2812 17.9844C86 16.5156 85.8594 14.7083 85.8594 12.5625C85.8594 10.4062 86 8.57812 86.2812 7.07812C86.5729 5.56771 86.9688 4.34375 87.4688 3.40625C87.9688 2.45833 88.5521 1.77604 89.2188 1.35938C89.8854 0.932292 90.599 0.71875 91.3594 0.71875C92.1198 0.71875 92.8333 0.927083 93.5 1.34375C94.1667 1.75 94.7448 2.42188 95.2344 3.35938C95.724 4.29688 96.1094 5.52083 96.3906 7.03125C96.6823 8.53125 96.8281 10.375 96.8281 12.5625ZM93.3438 12.5625C93.3438 10.9271 93.2917 9.54688 93.1875 8.42188C93.0833 7.29688 92.9375 6.38542 92.75 5.6875C92.5729 4.97917 92.3646 4.46875 92.125 4.15625C91.8854 3.84375 91.6302 3.6875 91.3594 3.6875C91.0781 3.6875 90.8125 3.84896 90.5625 4.17188C90.3229 4.48438 90.1094 4.99479 89.9219 5.70312C89.7448 6.40104 89.6042 7.31771 89.5 8.45312C89.3958 9.57812 89.3438 10.9479 89.3438 12.5625C89.3438 14.1667 89.3958 15.5156 89.5 16.6094C89.6042 17.6927 89.7448 18.5677 89.9219 19.2344C90.1094 19.8906 90.3229 20.3594 90.5625 20.6406C90.8125 20.9219 91.0781 21.0625 91.3594 21.0625C91.6302 21.0625 91.8854 20.9167 92.125 20.625C92.3646 20.3229 92.5729 19.8385 92.75 19.1719C92.9375 18.4948 93.0833 17.6146 93.1875 16.5312C93.2917 15.4479 93.3438 14.125 93.3438 12.5625ZM108.344 12.875C108.344 14.4896 108.224 15.8854 107.984 17.0625C107.755 18.2292 107.448 19.224 107.062 20.0469C106.677 20.8698 106.24 21.5365 105.75 22.0469C105.271 22.5573 104.781 22.9531 104.281 23.2344C103.781 23.5156 103.297 23.7031 102.828 23.7969C102.359 23.901 101.948 23.9531 101.594 23.9531L98.3906 23.6875C98.526 21.5625 98.6302 19.4271 98.7031 17.2812C98.776 15.125 98.8125 12.9531 98.8125 10.7656C98.8125 9.10938 98.7917 7.46875 98.75 5.84375C98.7083 4.21875 98.6458 2.59375 98.5625 0.96875C98.8125 0.947917 99.0573 0.932292 99.2969 0.921875C99.5365 0.911458 99.7708 0.90625 100 0.90625C101.729 0.90625 103.135 1.20312 104.219 1.79688C105.302 2.38021 106.146 3.20312 106.75 4.26562C107.365 5.31771 107.781 6.57812 108 8.04688C108.229 9.50521 108.344 11.1146 108.344 12.875ZM105.156 12.4531C105.156 11.9427 105.146 11.401 105.125 10.8281C105.104 10.2448 105.057 9.66667 104.984 9.09375C104.922 8.52083 104.823 7.96354 104.688 7.42188C104.552 6.88021 104.375 6.38542 104.156 5.9375C103.938 5.47917 103.667 5.08854 103.344 4.76562C103.031 4.44271 102.651 4.21354 102.203 4.07812C102.141 5.22396 102.083 6.34375 102.031 7.4375C101.99 8.52083 101.953 9.59375 101.922 10.6562C101.891 11.7188 101.865 12.776 101.844 13.8281C101.833 14.8698 101.828 15.9167 101.828 16.9688C101.828 17.6562 101.828 18.3542 101.828 19.0625C101.828 19.7604 101.839 20.474 101.859 21.2031C102.339 21.151 102.755 20.9688 103.109 20.6562C103.464 20.3438 103.76 19.9531 104 19.4844C104.25 19.0052 104.448 18.4688 104.594 17.875C104.75 17.2708 104.87 16.6562 104.953 16.0312C105.036 15.3958 105.089 14.7708 105.109 14.1562C105.141 13.5417 105.156 12.974 105.156 12.4531ZM117.953 17.9688C117.953 18.7917 117.865 19.5156 117.688 20.1406C117.521 20.7552 117.297 21.2865 117.016 21.7344C116.745 22.1719 116.438 22.5365 116.094 22.8281C115.75 23.1094 115.396 23.3333 115.031 23.5C114.677 23.6667 114.333 23.7812 114 23.8438C113.677 23.9167 113.396 23.9531 113.156 23.9531C113.031 23.9531 112.859 23.9427 112.641 23.9219C112.422 23.9115 112.172 23.8802 111.891 23.8281C111.609 23.776 111.297 23.6979 110.953 23.5938C110.62 23.5 110.266 23.3646 109.891 23.1875L110.062 19.25C110.677 19.7708 111.224 20.1198 111.703 20.2969C112.193 20.474 112.604 20.5625 112.938 20.5625C113.583 20.5625 114.068 20.3281 114.391 19.8594C114.724 19.3906 114.891 18.7812 114.891 18.0312C114.891 17.5312 114.766 16.974 114.516 16.3594C114.276 15.7344 113.844 15.0625 113.219 14.3438C112.792 13.8438 112.349 13.3229 111.891 12.7812C111.432 12.2396 111.016 11.6615 110.641 11.0469C110.266 10.4323 109.958 9.77083 109.719 9.0625C109.479 8.35417 109.359 7.58854 109.359 6.76562C109.359 5.72396 109.5 4.82292 109.781 4.0625C110.073 3.30208 110.458 2.67188 110.938 2.17188C111.417 1.67188 111.964 1.30208 112.578 1.0625C113.203 0.8125 113.854 0.6875 114.531 0.6875C115.125 0.6875 115.729 0.770833 116.344 0.9375C116.969 1.09375 117.594 1.33854 118.219 1.67188L117.922 5.60938C117.651 5.26562 117.365 4.99479 117.062 4.79688C116.771 4.58854 116.484 4.43229 116.203 4.32812C115.932 4.22396 115.677 4.15625 115.438 4.125C115.208 4.09375 115.016 4.07812 114.859 4.07812C114.557 4.07812 114.276 4.15625 114.016 4.3125C113.766 4.45833 113.547 4.66146 113.359 4.92188C113.182 5.17188 113.042 5.47396 112.938 5.82812C112.833 6.17188 112.781 6.53646 112.781 6.92188C112.781 7.51562 112.906 8.05208 113.156 8.53125C113.417 9.01042 113.74 9.48438 114.125 9.95312C114.51 10.4219 114.922 10.9062 115.359 11.4062C115.807 11.8958 116.224 12.4531 116.609 13.0781C116.995 13.6927 117.312 14.401 117.562 15.2031C117.823 15.9948 117.953 16.9167 117.953 17.9688Z" fill="#FBFCFE"/>
</svg>
