<svg width="137" height="120" viewBox="0 0 137 120" fill="none" xmlns="http://www.w3.org/2000/svg">
<rect width="137" height="120" rx="26" fill="#F5D2D3"/>
<path d="M61.8601 24.9166C45.9172 28.1536 33.9167 42.2498 33.9167 59.1507C33.9167 78.4447 49.5553 94.0833 68.8494 94.0833C85.7502 94.0833 99.8464 82.0829 103.083 66.14" stroke="#F99FA2" stroke-width="4" stroke-linecap="round" stroke-linejoin="round"/>
<path d="M92.4939 80.25C93.7799 79.9786 95.018 79.5158 96.1667 78.877M77.796 77.971C79.8595 78.8701 81.8388 79.5387 83.734 79.9768M64.5402 69.6952C65.9685 70.6981 67.4971 71.9016 68.9842 72.9391M37.375 65.8149C38.4886 65.272 39.6921 64.646 41.0512 64.11M49.3062 62.9583C51.2498 63.1727 53.4286 63.7295 55.8978 64.767M89.25 43.9375C89.25 42.5617 88.7035 41.2422 87.7306 40.2694C86.7578 39.2965 85.4383 38.75 84.0625 38.75C82.6867 38.75 81.3672 39.2965 80.3944 40.2694C79.4215 41.2422 78.875 42.5617 78.875 43.9375C78.875 45.3133 79.4215 46.6328 80.3944 47.6056C81.3672 48.5785 82.6867 49.125 84.0625 49.125C85.4383 49.125 86.7578 48.5785 87.7306 47.6056C88.7035 46.6328 89.25 45.3133 89.25 43.9375Z" stroke="#F99FA2" stroke-width="4" stroke-linecap="round" stroke-linejoin="round"/>
<path d="M87.4795 65.1025C86.545 65.9525 85.3259 66.4214 84.0626 66.4166C82.7994 66.4214 81.5802 65.9525 80.6458 65.1025C72.2524 57.342 61.0059 48.6685 66.4908 36.0801C69.4581 29.2707 76.5753 24.9166 84.0626 24.9166C91.5499 24.9166 98.6672 29.2741 101.631 36.0801C107.112 48.6546 95.8901 57.3662 87.4795 65.1025Z" stroke="#F99FA2" stroke-width="4" stroke-linecap="round" stroke-linejoin="round"/>
</svg>
